<svg width="116" height="100" viewBox="0 0 116 100" fill="none" xmlns="http://www.w3.org/2000/svg">
<path d="M116 97.5559V97.8657C109.271 100.323 102.395 100.478 95.9686 99.2456C82.2167 96.4788 72.8008 88.488 64.4304 70.8238C53.6675 47.7808 56.9581 54.3847 44.399 27.6526L41.8591 74.8157C41.7117 78.3499 42.4555 80.0396 44.399 80.0396V80.3494H38.1194V80.0396H38.2667C40.2103 80.0396 40.6593 76.3505 40.6593 74.8157L43.1992 25.3434C36.4706 10.9037 28.8509 3.37051 19.2807 1.22321C13.1555 -0.156691 7.32499 -0.00883971 0 2.30039V1.99061C6.7286 -0.311575 13.6045 -0.466462 20.0315 0.758554C30.4927 2.758 38.1194 7.82703 44.6936 18.12H44.841V18.2749C46.7845 21.4993 48.728 25.0336 50.6715 29.1803C56.053 40.5504 61.5818 52.5331 67.265 64.6706L85.3529 18.4298L85.5003 18.12H93.569V18.4298C91.7728 18.4298 90.2784 19.9646 90.2784 21.8091C90.2784 21.8091 92.2219 57.9119 93.12 72.3516C93.4217 77.2657 95.0635 80.0326 96.5579 80.0326H96.7053V80.3423H84.8969V80.0326C86.693 80.0326 88.6366 77.2657 88.4822 72.1967L85.6406 21.1896V21.0347L67.8544 66.0505L71.4397 73.7315C78.0139 87.8684 86.9877 96.4717 96.6983 98.619C102.845 100.013 108.675 99.8581 116 97.5559Z" fill="white"/>
</svg>
